<?xml version="1.0" standalone="no"?>
<!DOCTYPE svg PUBLIC "-//W3C//DTD SVG 20010904//EN"
 "http://www.w3.org/TR/2001/REC-SVG-20010904/DTD/svg10.dtd">
<svg version="1.0" xmlns="http://www.w3.org/2000/svg"
 width="1024.000000pt" height="1024.000000pt" viewBox="0 0 1024.000000 1024.000000"
 preserveAspectRatio="xMidYMid meet">
<metadata>
Created by potrace 1.14, written by Peter Selinger 2001-2017
</metadata>
<g transform="translate(0.000000,1024.000000) scale(0.100000,-0.100000)"
fill="#000000" stroke="none">
<path d="M6330 9424 c-493 -44 -1066 -150 -1430 -265 -522 -165 -1289 -457
-1705 -649 -121 -56 -224 -105 -230 -109 -5 -5 -53 -30 -105 -57 -233 -118
-484 -277 -539 -340 -46 -52 -94 -158 -95 -208 -1 -39 1 -41 31 -44 30 -3 35
2 87 81 62 97 104 133 275 232 327 190 798 411 1271 598 381 150 971 354 1238
427 418 115 1059 212 1402 213 128 0 177 -4 283 -26 70 -14 132 -29 138 -33
16 -9 5 -78 -21 -136 -64 -145 -338 -444 -675 -737 -331 -288 -412 -356 -900
-756 -145 -119 -315 -262 -445 -375 -529 -458 -616 -535 -850 -752 -167 -154
-288 -292 -305 -346 -5 -18 2 -31 34 -64 l41 -41 118 6 c135 7 284 40 633 142
843 245 944 273 955 262 4 -3 -8 -77 -25 -164 -46 -235 -81 -556 -81 -745 l0
-67 -138 -108 c-76 -59 -227 -175 -336 -258 -279 -210 -429 -331 -513 -412
-88 -85 -95 -115 -39 -179 l34 -39 128 -3 c142 -4 247 5 554 49 113 16 215 29
228 29 l24 0 -5 -492 c-7 -861 9 -1252 78 -1908 14 -129 36 -345 50 -480 14
-135 36 -337 50 -450 13 -113 27 -249 30 -303 6 -81 10 -101 28 -118 26 -24
42 -24 67 1 28 28 27 118 -4 407 -40 373 -88 930 -116 1363 -17 263 -30 1160
-23 1588 5 339 8 396 22 413 18 21 103 38 411 84 96 15 265 42 375 60 399 68
882 120 1235 134 253 10 349 6 357 -15 16 -43 -192 -372 -461 -730 -105 -138
-345 -440 -496 -623 -365 -442 -555 -690 -738 -966 -69 -104 -168 -247 -219
-318 -51 -70 -93 -134 -93 -142 0 -16 51 -55 72 -55 32 1 109 92 269 321 183
262 364 495 840 1079 287 353 338 421 636 855 167 242 226 338 279 450 48 103
55 134 43 181 -25 89 -107 109 -439 108 -422 -2 -1091 -76 -1535 -170 -392
-83 -532 -104 -546 -83 -11 18 -11 88 1 327 15 301 15 298 63 348 23 23 231
184 462 357 586 440 1076 834 1138 915 56 75 62 116 22 168 -38 50 -77 58
-250 50 -286 -12 -659 -83 -1105 -210 -68 -20 -131 -36 -140 -36 -15 0 -50 59
-50 84 0 17 -30 30 -42 18 -4 -4 -18 -39 -30 -77 l-23 -69 -200 -63 c-205 -64
-378 -114 -940 -271 -389 -109 -453 -125 -496 -120 l-34 4 110 109 c118 116
255 238 699 623 283 246 351 304 1006 851 706 591 960 826 1162 1076 202 250
244 459 107 527 -19 9 -90 29 -159 43 -101 22 -158 27 -295 30 -93 1 -190 1
-215 -1z m786 -2635 c10 -16 -57 -79 -186 -177 -63 -48 -191 -148 -285 -222
-93 -74 -370 -285 -615 -468 -442 -331 -445 -333 -448 -303 -8 80 101 810 128
861 15 29 27 33 249 95 416 115 630 160 961 204 177 23 187 24 196 10z m-1710
-1646 c-3 -60 -8 -179 -12 -265 -4 -86 -10 -161 -13 -166 -3 -5 -100 -23 -216
-40 -380 -57 -605 -80 -605 -63 0 18 124 118 470 380 190 143 353 261 363 261
18 0 18 -8 13 -107z"/>
<path d="M4117 8007 c-17 -12 -74 -157 -128 -326 -33 -104 -306 -1180 -362
-1431 -65 -287 -119 -584 -152 -832 -8 -62 -44 -586 -48 -698 -4 -124 1 -150
31 -161 32 -12 59 18 66 73 3 24 17 167 31 318 14 151 30 327 36 390 16 170
56 449 83 580 39 192 402 1622 461 1818 51 172 54 186 42 224 -14 46 -37 63
-60 45z"/>
</g>
</svg>
